<svg id="Layer_1" enable-background="new 0 0 510.735 510.735" height="512" viewBox="0 0 510.735 510.735" width="512" xmlns="http://www.w3.org/2000/svg"><g><path d="m34.764 236.007 59.481 220.556 321.985 1.009 57.704-221.565z" fill="#fdbf00"/><path d="m254.349 457.065 161.881.507 57.704-221.565h-219.585z" fill="#ff9100"/><path d="m484.027 227.538c-2.845-3.611-7.188-5.719-11.784-5.719h-325.32c-.654-.049-1.32-.039-1.991 0h-106.417c-4.596 0-8.938 2.106-11.782 5.716-2.844 3.609-3.877 8.324-2.802 12.792l53.068 220.633c1.621 6.741 7.651 11.492 14.584 11.492h81.739c.011 0 .021.001.032.001.016 0 .031-.001.047-.001h163.973c.016 0 .032.001.047.001.011 0 .021-.001.032-.001h81.6c6.93 0 12.958-4.748 14.582-11.484l53.19-220.634c1.077-4.469.046-9.185-2.798-12.796zm-50.181 104.549h-65.674l10.022-80.269h75.003zm-163.458 110.366v-80.365h63.805l-10.034 80.365zm-83.774 0-10.043-80.365h63.817v80.365zm-13.792-110.366-10.031-80.269h77.597v80.269zm97.566 0v-80.269h77.573l-10.022 80.269zm-137.83-80.269 10.031 80.269h-65.731l-19.307-80.269zm-48.485 110.269h62.265l10.043 80.365h-52.978zm323.166 80.366h-52.847l10.034-80.365h62.187z" fill="#ff8700"/><path d="m472.243 221.818h-216.677v250.634h81.808c.016 0 .032.001.047.001.01 0 .021-.001.031-.001h81.6c6.93 0 12.958-4.748 14.582-11.484l53.19-220.634c1.077-4.469.046-9.185-2.798-12.796-2.843-3.612-7.186-5.72-11.783-5.72zm-148.085 220.635h-53.771v-80.365h63.805zm13.78-110.366h-67.551v-80.269h77.573zm69.301 110.366h-52.847l10.034-80.365h62.187zm26.607-110.366h-65.674l10.022-80.269h75.003z" fill="#ff641a"/><g><path d="m89.203 211.931c-2.367 0-4.769-.562-7.006-1.746-7.321-3.876-10.114-12.954-6.238-20.275l76.05-143.644c3.876-7.321 12.956-10.113 20.275-6.238 7.321 3.876 10.114 12.954 6.238 20.275l-76.05 143.644c-2.691 5.084-7.891 7.984-13.269 7.984z" fill="#444"/></g><g><path d="m421.444 211.931c-5.379 0-10.577-2.9-13.27-7.984l-76.05-143.644c-3.876-7.321-1.083-16.399 6.238-20.275 7.324-3.876 16.399-1.083 20.275 6.238l76.05 143.644c3.876 7.321 1.083 16.399-6.238 20.275-2.236 1.184-4.638 1.746-7.005 1.746z" fill="#292929"/></g><g><path d="m502.1 251.819h-493.464c-4.769 0-8.636-3.866-8.636-8.636v-47.727c0-4.769 3.866-8.636 8.636-8.636h493.464c4.769 0 8.636 3.866 8.636 8.636v47.727c-.001 4.769-3.867 8.636-8.636 8.636z" fill="#ff4a4a"/></g><path d="m502.1 186.787-246.571.034v64.998l246.571-.034c4.769 0 8.636-3.866 8.636-8.636v-47.727c-.001-4.769-3.867-8.635-8.636-8.635z" fill="#e20059"/></g></svg>